<svg width="13" height="13" viewBox="0 0 13 13" fill="none" xmlns="http://www.w3.org/2000/svg">
<g opacity="0.5">
<path d="M13 2.23563V0H7.62036V2.23563H8.9946V10.7644H7.62455V13H13V10.7644H11.6258V2.23563H13Z" fill="white"/>
<path d="M4.00541 2.23647L5.37966 0H0V2.23563H1.37424V10.7644H0V13H5.37547V10.7644H4.00541V2.23647Z" fill="white"/>
<path d="M5.94778 8.40385C6.72758 8.40385 7.35973 7.77194 7.35973 6.99245C7.35973 6.21296 6.72758 5.58105 5.94778 5.58105C5.16798 5.58105 4.53583 6.21296 4.53583 6.99245C4.53583 7.77194 5.16798 8.40385 5.94778 8.40385Z" fill="white"/>
<path d="M7.8541 5.93619C8.22711 5.93619 8.52949 5.63393 8.52949 5.26107C8.52949 4.8882 8.22711 4.58594 7.8541 4.58594C7.48109 4.58594 7.17871 4.8882 7.17871 5.26107C7.17871 5.63393 7.48109 5.93619 7.8541 5.93619Z" fill="white"/>
</g>
</svg>
